<?xml version="1.0" standalone="no"?>
<!DOCTYPE svg PUBLIC "-//W3C//DTD SVG 20010904//EN"
 "http://www.w3.org/TR/2001/REC-SVG-20010904/DTD/svg10.dtd">
<svg version="1.0" xmlns="http://www.w3.org/2000/svg"
 width="986.000000pt" height="983.000000pt" viewBox="0 0 986.000000 983.000000"
 preserveAspectRatio="xMidYMid meet">

<g transform="translate(0.000000,983.000000) scale(0.100000,-0.100000)"
fill="#000000" stroke="none">
<path d="M0 4915 l0 -4915 4930 0 4930 0 0 4915 0 4915 -4930 0 -4930 0 0
-4915z m5237 3044 c966 -79 1822 -579 2362 -1379 291 -432 459 -894 519 -1430
l17 -155 80 -5 c44 -3 -293 -9 -750 -13 -1268 -12 -5942 -2 -5695 12 l95 6 8
80 c57 604 245 1115 585 1590 239 333 563 632 922 850 555 337 1223 497 1857
444z m1998 -3285 c18 -6 -196 -11 -549 -14 l-578 -5 178 -190 c214 -228 359
-386 473 -515 129 -145 271 -288 321 -323 25 -17 72 -46 105 -64 48 -27 54
-32 30 -29 -16 2 -34 5 -38 5 -5 1 -5 6 -2 11 9 15 -7 12 -30 -6 -19 -14 -19
-15 5 -12 15 2 24 -2 23 -8 -1 -7 6 -10 16 -7 15 4 17 0 13 -26 -2 -17 -7 -30
-11 -29 -3 0 -22 -1 -41 -3 -19 -1 10 -6 65 -9 55 -3 -167 -7 -492 -8 l-593
-2 0 33 0 33 105 12 c162 18 214 54 187 132 -43 121 -315 445 -674 803 l-209
207 -110 0 -109 0 0 -477 c0 -443 2 -481 19 -519 37 -82 135 -133 284 -149
l67 -7 0 -34 0 -34 -590 0 -590 0 0 34 c0 34 0 34 58 40 171 19 245 57 295
151 22 39 22 50 25 513 3 384 1 473 -10 477 -7 3 -133 4 -280 3 l-267 -3 46
-60 c97 -128 143 -272 143 -448 0 -308 -203 -585 -515 -702 -138 -52 -327 -75
-470 -56 -129 17 -400 89 -340 91 23 0 55 42 36 48 -6 2 -11 17 -11 32 0 40
26 52 70 33 121 -51 336 -69 455 -38 223 58 372 267 352 493 -7 77 -44 194
-84 261 -47 80 -113 140 -274 247 l-157 104 -223 0 c-122 0 -219 3 -216 7 4 3
98 10 210 13 289 10 3846 4 3882 -6z m-4265 -839 c13 -14 21 -25 18 -25 -2 0
-15 11 -28 25 -13 14 -21 25 -18 25 2 0 15 -11 28 -25z m171 -162 c13 -16 12
-17 -3 -4 -17 13 -22 21 -14 21 2 0 10 -8 17 -17z m82 -47 c10 -8 14 -17 9
-20 -4 -3 -16 4 -25 15 -19 22 -10 25 16 5z m-56 -142 c-3 -3 -12 -4 -19 -1
-8 3 -5 6 6 6 11 1 17 -2 13 -5z m4093 -569 c-6 -8 -9 -19 -5 -24 3 -7 0 -8
-9 -5 -10 4 -16 1 -16 -7 0 -7 -3 -9 -7 -6 -3 4 4 18 17 32 25 27 40 35 20 10z
m-63 -95 c1 -16 -2 -32 -7 -35 -6 -3 -7 2 -4 12 5 15 4 16 -5 3 -6 -8 -11 -11
-11 -6 0 12 -30 -14 -30 -27 0 -6 7 -2 16 9 15 18 15 18 10 -5 -4 -18 -2 -21
7 -12 16 16 23 14 24 -11 2 -18 0 -20 -7 -8 -5 8 -10 12 -10 8 0 -3 -3 -14 -7
-24 -4 -12 -3 -15 5 -10 7 4 15 1 18 -8 3 -9 10 -13 15 -10 5 3 6 -3 2 -13 -6
-16 -5 -17 12 -3 18 14 18 14 0 -12 -16 -20 -22 -23 -28 -12 -14 25 -29 15
-25 -16 3 -17 1 -33 -4 -36 -4 -3 -8 -10 -8 -16 0 -6 9 -3 20 7 11 10 17 23
13 29 -3 6 -3 8 2 4 4 -4 14 -3 22 3 33 28 8 -2 -48 -56 -34 -33 -58 -53 -54
-45 5 9 4 12 -1 7 -5 -5 -9 -13 -9 -17 0 -12 -111 -108 -226 -196 -578 -439
-1337 -671 -2048 -625 -392 25 -722 103 -1068 251 -203 88 -490 251 -477 272
4 7 2 8 -4 4 -15 -9 -64 23 -55 37 4 6 0 8 -10 4 -8 -3 -21 1 -27 9 -9 10 -9
14 -1 14 6 0 11 -5 11 -12 0 -6 3 -8 7 -4 5 4 0 14 -10 21 -12 8 -14 15 -8 20
6 3 11 1 11 -4 0 -13 10 -14 26 -3 8 5 9 23 4 55 -7 48 -4 55 18 37 6 -6 10
-7 7 -4 -3 4 1 14 8 22 9 13 9 14 0 8 -8 -4 -13 -2 -14 6 0 10 -2 10 -6 1 -2
-7 -10 -13 -16 -13 -5 0 -7 3 -4 6 4 4 -3 21 -15 37 -21 30 -20 29 37 -12 521
-377 1118 -571 1758 -571 614 0 1211 191 1718 550 82 59 278 221 323 269 16
17 33 28 38 25 5 -3 7 0 6 8 -2 7 4 12 12 10 8 -2 12 0 7 4 -4 4 14 29 40 56
26 26 47 48 48 48 0 0 1 -13 2 -30z m133 -83 c0 -2 -17 -20 -38 -40 -24 -24
-39 -32 -39 -23 0 8 3 13 7 11 4 -2 20 9 35 25 27 28 35 34 35 27z m-4609 -44
c13 -16 12 -17 -3 -4 -10 7 -18 15 -18 17 0 8 8 3 21 -13z m428 -166 c8 -10 7
-14 -2 -14 -8 0 -14 6 -14 14 0 7 1 13 2 13 2 0 8 -6 14 -13z m64 -100 c3 -8
2 -20 -3 -26 -5 -9 -7 -4 -7 13 0 29 2 32 10 13z m-38 -97 c3 -5 1 -10 -4 -10
-6 0 -11 5 -11 10 0 6 2 10 4 10 3 0 8 -4 11 -10z m-20 -20 c10 -11 16 -20 13
-20 -3 0 -13 9 -23 20 -10 11 -16 20 -13 20 3 0 13 -9 23 -20z"/>
<path d="M4745 7774 c-602 -61 -1127 -271 -1585 -634 -124 -98 -368 -340 -464
-460 -369 -465 -590 -1015 -642 -1602 l-6 -78 496 0 c273 0 496 2 496 4 0 2
-35 38 -77 79 -126 123 -182 235 -203 408 -27 233 46 440 210 592 131 121 292
185 490 194 146 7 246 -10 455 -77 87 -27 174 -50 194 -50 50 0 92 29 121 84
25 46 26 47 70 44 l44 -3 43 -430 c23 -236 42 -436 43 -442 0 -9 -17 -13 -52
-13 l-53 0 -24 83 c-54 179 -183 381 -314 488 -237 193 -579 211 -761 39 -34
-32 -64 -73 -82 -113 -26 -56 -29 -72 -29 -167 0 -96 3 -110 29 -164 34 -69
138 -183 239 -260 40 -30 162 -109 271 -176 l199 -120 516 2 516 3 0 475 c0
468 0 476 -22 515 -47 88 -122 130 -263 147 l-90 11 0 34 0 33 595 0 595 0 0
-34 0 -34 -72 -7 c-153 -15 -251 -66 -289 -149 -17 -38 -19 -76 -19 -518 l0
-478 53 0 52 0 220 196 c411 366 616 570 703 702 27 40 37 67 40 107 4 49 2
57 -25 83 -31 31 -78 45 -200 57 l-63 7 0 34 0 34 550 0 550 0 0 -33 0 -33
-89 -12 c-119 -16 -201 -47 -292 -110 -104 -72 -187 -150 -651 -607 -313 -309
-405 -404 -396 -413 9 -9 276 -12 1095 -12 1026 0 1083 1 1083 18 0 9 -7 75
-15 146 -118 1009 -731 1873 -1645 2320 -282 138 -536 216 -885 272 -96 15
-561 28 -660 18z"/>
<path d="M7137 3569 c7 -7 15 -10 18 -7 3 3 -2 9 -12 12 -14 6 -15 5 -6 -5z"/>
<path d="M3248 3493 c7 -3 16 -2 19 1 4 3 -2 6 -13 5 -11 0 -14 -3 -6 -6z"/>
<path d="M3228 3473 c7 -3 16 -2 19 1 4 3 -2 6 -13 5 -11 0 -14 -3 -6 -6z"/>
<path d="M7138 2583 c10 -4 10 -8 0 -21 -12 -15 -11 -16 4 -3 19 14 15 32 -5
30 -8 0 -8 -2 1 -6z"/>
<path d="M3220 2290 c0 -5 5 -10 10 -10 6 0 10 5 10 10 0 6 -4 10 -10 10 -5 0
-10 -4 -10 -10z"/>
<path d="M3237 2263 c-9 -8 25 -33 36 -26 4 3 3 11 -4 19 -13 15 -22 18 -32 7z"/>
</g>
</svg>
